<mxfile host="app.diagrams.net" modified="2021-09-29T14:53:14.256Z" agent="5.0 (Windows NT 10.0; Win64; x64) AppleWebKit/537.36 (KHTML, like Gecko) Chrome/93.0.4577.82 Safari/537.36" etag="T9M1Ke0RYml876wvx8yy" version="15.1.4" type="github">
  <diagram id="3ICj2aNZ7TobfYtiLC9A" name="Page-1">
    <mxGraphModel dx="868" dy="464" grid="1" gridSize="10" guides="1" tooltips="1" connect="1" arrows="1" fold="1" page="1" pageScale="1" pageWidth="827" pageHeight="1169" math="0" shadow="0">
      <root>
        <mxCell id="0" />
        <mxCell id="1" parent="0" />
        <mxCell id="eMWy7YTrjvLq-4_o24Pj-2" value="" style="rounded=0;whiteSpace=wrap;html=1;" vertex="1" parent="1">
          <mxGeometry x="170" y="220" width="630" height="310" as="geometry" />
        </mxCell>
        <mxCell id="eMWy7YTrjvLq-4_o24Pj-4" value="LDAP&lt;br&gt;&lt;br&gt;NAGIOS" style="rounded=0;whiteSpace=wrap;html=1;" vertex="1" parent="1">
          <mxGeometry x="190" y="240" width="90" height="270" as="geometry" />
        </mxCell>
        <mxCell id="eMWy7YTrjvLq-4_o24Pj-5" value="LIFERAY, JASPERSOFT" style="rounded=0;whiteSpace=wrap;html=1;" vertex="1" parent="1">
          <mxGeometry x="293" y="240" width="386" height="60" as="geometry" />
        </mxCell>
        <mxCell id="eMWy7YTrjvLq-4_o24Pj-6" value="JBOSS, ESRI" style="rounded=0;whiteSpace=wrap;html=1;" vertex="1" parent="1">
          <mxGeometry x="293" y="310" width="386" height="60" as="geometry" />
        </mxCell>
        <mxCell id="eMWy7YTrjvLq-4_o24Pj-7" value="JAVA, R" style="rounded=0;whiteSpace=wrap;html=1;" vertex="1" parent="1">
          <mxGeometry x="293" y="380" width="386" height="60" as="geometry" />
        </mxCell>
        <mxCell id="eMWy7YTrjvLq-4_o24Pj-8" value="POSTGRESQL (BD Y GDB), ARC SDE, SAN" style="rounded=0;whiteSpace=wrap;html=1;" vertex="1" parent="1">
          <mxGeometry x="293" y="450" width="386" height="60" as="geometry" />
        </mxCell>
        <mxCell id="eMWy7YTrjvLq-4_o24Pj-9" value="LDAP&lt;br&gt;&lt;br&gt;NAGIOS" style="rounded=0;whiteSpace=wrap;html=1;" vertex="1" parent="1">
          <mxGeometry x="690" y="240" width="90" height="270" as="geometry" />
        </mxCell>
      </root>
    </mxGraphModel>
  </diagram>
</mxfile>
